####
#
# OBJ File Generated by Meshlab
#
####
# Object dragon_points.obj
#
# Vertices: 123
# Faces: 0
#
####
vn 0.3709020 0.7082926 0.6006274
v -0.1747018 -0.2702399 -0.2641219
vn -0.8287868 0.3067127 0.4680169
v 0.1519504 -0.2232419 -0.3350421
vn 0.1931559 0.9797681 0.0523961
v -0.0540649 -0.2756170 0.1883225
vn -0.8681814 0.4254719 -0.2554111
v -0.1291617 -0.0220777 0.2385791
vn -0.3938177 0.8780531 0.2719016
v 0.0514971 -0.2778881 -0.1924313
vn -0.7867494 0.5160510 0.3386987
v 0.0026492 0.1522527 0.3175576
vn -0.8577536 0.0893892 0.5062296
v -0.1590991 -0.1752679 0.4021627
vn -0.8785748 -0.4671790 -0.0992478
v 0.0733624 -0.0013741 -0.2339653
vn -0.1898437 -0.5525982 0.8115385
v 0.0571142 -0.0633199 -0.3211099
vn -0.4387069 0.8789579 -0.1870006
v 0.1227734 -0.2813792 -0.1265152
vn -0.0366634 0.9951056 0.0917642
v 0.0122605 -0.2821922 0.2845500
vn -0.6902941 0.3435532 -0.6367616
v -0.0104255 -0.0268554 0.4531434
vn -0.1590604 0.7296268 0.6650899
v 0.0576418 -0.0251014 -0.0672366
vn -0.7591573 0.5466329 0.3533734
v -0.1177221 -0.0730191 0.4227268
vn -0.2921041 0.9476407 0.1290443
v 0.0149528 0.2183800 0.1862141
vn -0.5106105 0.6748111 0.5328293
v -0.0327763 -0.0294620 -0.1707444
vn -0.1424165 0.8505209 -0.5062922
v -0.1007863 0.3224240 -0.3925339
vn -0.9887629 0.0758738 -0.1288066
v -0.0104232 0.0065566 0.3282034
vn -0.8809910 -0.4599885 0.1107493
v 0.1168840 -0.0954095 -0.2603264
vn -0.1898436 -0.5525981 0.8115385
v -0.0231873 -0.0596626 -0.3613555
vn -0.9105418 -0.1450172 0.3871481
v 0.1207339 -0.0694959 0.1859839
vn 0.3059597 0.8802705 0.3626465
v -0.0190870 -0.1980151 0.1352129
vn -0.2019646 -0.5886416 -0.7827588
v 0.0933067 0.3514886 -0.0276810
vn -0.5369545 0.4586879 -0.7080150
v 0.0778333 -0.2675516 0.3501098
vn -0.7013745 0.6829899 0.2039577
v -0.0164336 0.1703769 0.1178701
vn -0.6922544 -0.6540319 -0.3050020
v 0.0705441 0.2125208 0.2901943
vn -0.9862817 0.0747477 0.1471777
v -0.1342480 0.1845476 -0.3972811
vn -0.9145812 -0.2716528 0.2995766
v -0.0610068 0.1458771 -0.3524175
vn 0.0027417 0.9721149 0.2344894
v 0.0027757 -0.2754686 -0.2693188
vn -0.3590241 0.4375083 0.8244321
v 0.0695868 -0.2501164 -0.3699951
vn 0.3006548 0.7652645 0.5691897
v -0.0842774 -0.2557648 -0.2816253
vn -0.9354751 0.0137515 -0.3531249
v 0.1155207 -0.1410884 -0.0207008
vn -0.8849773 0.1362315 0.4452598
v -0.0099467 0.2158683 -0.0374476
vn -0.7732977 0.5999504 0.2051104
v -0.0797108 -0.1000208 -0.0252440
vn -0.7877685 0.4883941 0.3753558
v -0.1045151 -0.0873684 -0.1698392
vn -0.5996931 -0.7846717 0.1570311
v -0.1885490 -0.2743821 -0.1722308
vn -0.7032191 0.4788348 -0.5255475
v -0.0246937 0.1339288 0.2132100
vn -0.6436635 -0.2378383 0.7274134
v -0.0053273 0.2925042 -0.4292138
vn -0.9559788 -0.1056556 0.2737546
v 0.1230944 -0.0313115 -0.0050169
vn -0.8548664 0.3323276 -0.3984495
v -0.0148158 0.1843855 0.5028257
vn -0.8287867 0.3067125 0.4680170
v 0.0717776 -0.1723747 -0.2925586
vn -0.8533841 0.4800787 0.2031259
v 0.1319973 -0.2128041 -0.2279316
vn -0.9395773 0.2043070 0.2746872
v -0.0235437 0.0998532 0.0362080
vn -0.7707321 -0.5330727 0.3490067
v 0.1393285 0.3617115 -0.1487709
vn -0.8349767 0.5502782 0.0027843
v -0.1416019 -0.2223066 -0.0067553
vn -0.4037819 -0.8914105 0.2057851
v 0.1150487 0.2044026 0.1776420
vn -0.8397843 0.4390399 -0.3193843
v -0.0022263 0.1319504 -0.0847648
vn -0.8704961 0.0372741 -0.4907618
v 0.0367617 0.1615637 0.4165832
vn -0.9615601 0.1347054 0.2392837
v -0.0674601 0.0511361 0.2447329
vn -0.7732529 0.6013449 0.2011575
v 0.0937985 -0.1822049 0.1317877
vn -0.7462288 0.4285692 -0.5093831
v -0.1086793 -0.0971991 -0.2985125
vn -0.6595600 -0.5346626 0.5283148
v -0.1025102 -0.2806142 -0.0715187
vn -0.1326550 0.9864346 -0.0966928
v 0.0666674 0.4077983 -0.1050302
vn -0.6609348 0.0688948 -0.7472742
v 0.0956301 -0.0765424 0.2920050
vn -0.9544707 -0.2520265 0.1595880
v 0.1225360 0.1104298 0.1903701
vn 0.7226569 0.6712745 -0.1647954
v -0.1336991 -0.2680958 0.2979918
vn -0.9684530 0.2252005 -0.1066933
v -0.1871455 -0.1055565 0.2651607
vn -0.5615741 -0.5412617 -0.6258357
v 0.0300326 -0.1665673 0.2897896
vn -0.6755758 -0.0035543 -0.7372819
v 0.0062188 0.2419067 -0.2118087
vn -0.9534386 0.2218129 0.2043376
v -0.0247437 0.0266651 -0.0185017
vn -0.8682869 -0.2672078 0.4179449
v 0.1070730 0.2592450 -0.2110613
vn -0.6370249 -0.7394598 0.2177120
v 0.0528013 -0.0964987 -0.1248845
vn -0.9346223 0.3523299 -0.0484229
v 0.0946328 0.0737642 -0.1563018
vn -0.2890257 0.8625788 -0.4152373
v 0.0485127 -0.2735226 -0.0505867
vn -0.6291853 0.6090828 -0.4828500
v -0.0867923 -0.0158410 -0.2624428
vn -0.9919072 0.0119305 -0.1264035
v 0.1492464 -0.2258872 -0.0596739
vn -0.9049450 0.2884805 -0.3128157
v 0.1204773 0.1700789 -0.1129928
vn -0.9477398 0.3061108 -0.0899192
v -0.1576207 -0.1552044 -0.2015975
vn -0.7968202 -0.4907616 0.3524636
v -0.0218044 0.3320918 -0.3458396
vn -0.9372819 -0.3361191 0.0923404
v 0.0525764 0.2053149 0.0583131
vn -0.9154271 -0.3180971 -0.2465920
v 0.1250170 0.1260781 0.2903641
vn -0.6035441 -0.0653496 0.7946471
v 0.0326492 0.1693738 -0.3164032
vn -0.8049102 -0.5539081 0.2128508
v 0.0363917 0.3226784 -0.2771172
vn -0.8348463 0.5291953 0.1516045
v -0.0743042 0.2637475 -0.3245749
vn -0.9008300 0.2909681 0.3222466
v -0.0530865 0.2691011 -0.1469602
vn -0.9197702 -0.0649414 -0.3870470
v 0.1768087 0.2543013 -0.0463630
vn 0.2855981 0.0503246 0.9570273
v -0.0414079 -0.1774600 -0.3630096
vn -0.8715515 0.0690702 -0.4854147
v 0.1253355 -0.2076417 0.2929622
vn 0.2531712 0.6532490 -0.7135616
v -0.1120293 -0.2589899 0.3900304
vn -0.9951206 -0.0765966 0.0621944
v -0.0792913 0.1822862 -0.2113800
vn -0.7960815 0.6038736 -0.0398875
v -0.0341389 0.3279772 -0.2200885
vn -0.5929577 0.6314193 -0.4997107
v -0.0748781 -0.1919786 0.4396651
vn -0.9668552 0.1070946 -0.2317799
v -0.1164335 -0.1833043 0.2619498
vn 0.0928429 0.9926240 -0.0779604
v -0.0327056 -0.2676312 -0.1470382
vn 0.6178820 0.7431149 0.2569087
v -0.1457930 -0.2648576 0.1896264
vn -0.9487830 -0.1982159 0.2460107
v 0.1323763 0.0961008 0.0809324
vn -0.9576899 -0.0871585 -0.2742875
v 0.0047681 0.0278787 -0.3139065
vn -0.8376799 0.4103949 -0.3603726
v 0.0713398 -0.1036957 0.0684034
vn -0.8511012 0.4922702 0.1824741
v 0.0595696 0.1305328 -0.0109734
vn -0.6660036 -0.0213990 0.7456416
v -0.0980586 0.2299203 -0.4717588
vn -0.8840418 0.2574277 0.3901296
v -0.0239536 0.3568363 -0.0959148
vn -0.6001078 0.5192841 -0.6084526
v -0.1068327 -0.1183689 0.1857129
vn -0.7026240 0.2179339 -0.6773658
v 0.1255281 0.0329214 0.2983947
vn -0.1931148 0.9470924 0.2563644
v 0.0461003 -0.2814052 0.1884692
vn -0.4419565 -0.8838136 -0.1534536
v 0.0035834 0.0698294 0.1410667
vn -0.9477400 0.3061106 -0.0899193
v -0.2366158 -0.1837269 -0.2381110
vn -0.8688994 -0.2494412 0.4275429
v 0.1056669 0.0141920 0.1026213
vn -0.8609108 0.3969697 0.3181945
v 0.0785802 0.0201655 0.2068771
vn -0.8715513 0.0690702 -0.4854149
v 0.2053131 -0.2693103 0.2095633
vn 0.2357753 0.9533308 -0.1886012
v -0.0441612 -0.2190506 0.0013006
vn -0.9378610 0.0162781 0.3466293
v -0.1284779 -0.1479636 -0.1026185
vn -0.6523356 0.0821311 0.7534671
v -0.0419043 0.1616653 -0.4557309
vn 0.2206032 0.9254733 -0.3079503
v 0.0522335 -0.1909927 0.0262499
vn -0.6249278 0.3651070 0.6900450
v 0.0838321 0.1747322 -0.2307643
vn -0.3056324 0.0410047 0.9512663
v -0.0169998 -0.0807789 0.2607535
vn -0.6786475 0.5697724 0.4634619
v 0.0116597 0.3091259 0.0083741
vn -0.9029275 0.3801460 0.2005269
v -0.1034079 -0.1404943 0.3393688
vn -0.8497394 0.0321285 0.5262232
v 0.0004889 -0.0431753 0.0901274
vn -0.0286987 0.9978066 0.0596524
v -0.0062152 -0.0952105 0.1668172
vn -0.7935024 0.1340201 0.5936266
v 0.0397556 0.2585783 -0.3388175
vn -0.8059109 0.3380218 -0.4860545
v -0.0303865 -0.1133447 0.4115907
vn -0.7423375 0.5286571 -0.4116514
v 0.0515158 0.3045456 -0.0973479
vn -0.5242162 0.2142622 -0.8241900
v 0.0845753 0.2309232 -0.0562982
vn -0.9442263 0.2462749 -0.2185989
v -0.0649944 0.0477714 -0.2020668
vn -0.9437569 -0.2836020 -0.1699789
v 0.0045884 0.0431780 -0.1199772
vn -0.7766333 0.6137697 -0.1418715
v -0.1295755 -0.2303666 0.1089754
vn 0.3461833 0.8946776 -0.2823282
v -0.0151579 -0.1363531 0.0535583
vn -0.8832788 -0.2292254 -0.4089919
v 0.0200099 0.1070309 -0.2362371
vn -0.8829849 0.0481194 -0.4669284
v 0.0648083 0.0610786 0.3646875
vn -0.8016505 -0.2605078 0.5380449
v -0.1140646 -0.2260570 -0.1628121
vn -0.8970755 -0.4323514 0.0912573
v 0.1399918 -0.1684116 0.2078858
vn -0.7703294 0.2569213 -0.5835959
v 0.0128953 0.0750578 0.4568519
vn -0.9968738 0.0608665 0.0503778
v 0.1112879 -0.1815571 -0.1443097
# 123 vertices, 0 vertices normals

# 0 faces, 0 coords texture

# End of File
