####
#
# OBJ File Generated by Meshlab
#
####
# Object points_block_car.obj
#
# Vertices: 121
# Faces: 0
#
####
vn -0.9487332 0.3124443 0.0477927
v -1.0392470 7.2339954 0.7170916
vn -0.2429180 -0.3700016 -0.8967105
v -0.2461800 6.8426132 -2.0825644
vn -0.8928438 -0.1998844 0.4035791
v -1.3507850 6.0433464 -0.7948875
vn -0.9640162 -0.2490520 -0.0929828
v -1.0392470 6.8038416 0.3106160
vn 0.5257921 0.8505045 0.0135956
v 0.5563197 8.0352478 -0.6746742
vn -0.9953130 0.0707435 0.0659344
v -1.3507850 7.0571928 -1.0788116
vn -0.9680713 -0.2492259 0.0269163
v -0.9248720 6.8139005 1.1491865
vn -0.9683225 -0.1993349 -0.1503898
v -1.3009837 5.9371104 1.4320372
vn 0.2298832 -0.6719081 0.7040548
v -0.1714081 6.5795708 3.1008997
vn -0.9808021 0.1835792 0.0657738
v -1.0392470 7.2191048 -0.3392666
vn 0.0826440 0.8993155 -0.4294202
v 0.2315128 8.0352478 -1.5220566
vn -0.9410242 0.0600424 -0.3329690
v -1.3131449 6.8697405 -1.5869105
vn 0.7018439 -0.6940631 0.1602860
v 1.0989947 6.0375333 1.9587965
vn -0.1914288 -0.9629984 0.1897079
v 1.2953740 5.9682126 -0.9217323
vn 0.0628256 0.9956504 -0.0687990
v 0.0134232 8.0352478 -1.0529892
vn -0.0927544 -0.9670113 -0.2372464
v -0.2681826 6.2996488 -1.4317341
vn -0.7578086 0.6084063 -0.2357287
v -1.0381613 8.0167542 -1.5706271
vn -0.2166306 -0.9762007 -0.0101653
v -0.5389389 6.2996483 0.0765488
vn -0.9809015 -0.1027219 0.1651678
v -1.3507850 6.5466547 -1.0104918
vn 0.7021660 0.6217343 0.3470006
v 1.0013940 7.2303028 2.7290149
vn 0.3945374 0.9141712 0.0929056
v 0.4539818 8.0352478 0.6427690
vn -0.6280393 0.7713023 0.1032442
v -1.0392470 8.0109081 0.3511664
vn -0.0286675 -0.9923112 0.1204023
v -0.8329536 6.2996483 -0.9232376
vn 0.9521806 -0.1418951 0.2705880
v 0.9852897 6.8390236 3.1008999
vn 0.5648262 0.4466550 -0.6938809
v 0.9825746 7.5054460 -2.1540098
vn 0.9998142 0.0190430 -0.0030088
v 1.2953736 6.4051065 -0.6383775
vn -0.0851597 -0.9145161 0.3954847
v -0.2316070 6.2996483 2.6819737
vn -0.1238943 -0.6470804 -0.7522880
v -0.8308021 6.2996492 1.3679219
vn -0.9932120 0.0579002 0.1008834
v -1.3430331 7.0250092 1.3753748
vn 0.1863768 -0.9730319 -0.1359135
v 0.6178945 6.2996488 0.5041862
vn -0.2643193 -0.4195354 -0.8684039
v -0.7007183 6.4565492 -2.0316033
vn -0.7942345 0.5517582 0.2544695
v -1.0392470 7.3715158 1.7581575
vn 0.0640815 0.9377967 0.3412199
v 0.0831968 7.9292040 1.1063664
vn 0.1707549 -0.9817961 -0.0831814
v 0.8694600 5.9885678 -1.4257524
vn -0.1782887 0.8408017 -0.5111417
v -0.3099104 8.0352478 -1.5277505
vn -0.7206597 0.6919585 0.0429306
v -1.0392470 8.0129662 -0.2706502
vn 0.5731148 0.7852919 -0.2342140
v 0.9750474 8.0352478 -1.4700825
vn -0.4987611 0.8229666 0.2719620
v -0.6092576 8.0352478 0.6317818
vn 0.9099687 -0.2818634 -0.3041545
v 1.2953739 6.7083869 1.2532756
vn -0.7317855 0.6784753 0.0645089
v -1.0392470 7.9334502 0.9290879
vn -0.2065881 -0.9777814 0.0355661
v -0.1558699 6.2996488 2.1751618
vn -0.9168661 0.3991781 -0.0036735
v -1.0392470 7.6610022 -0.6371225
vn -0.5677253 -0.4016200 0.7186023
v -0.7213086 6.7276654 3.1008999
vn -0.0457377 -0.9789854 -0.1987354
v -0.4563753 6.2996488 1.7253056
vn 0.4767285 -0.8525664 0.2141504
v 1.0318906 6.2996492 0.0958949
vn 0.9856070 0.0204687 0.1678091
v 1.0392470 6.7969627 2.2543225
vn -0.2775183 -0.9592932 -0.0523469
v -0.6604882 6.2996488 0.8360937
vn 0.1635709 -0.9615546 0.2205839
v -1.0096800 5.9258413 -1.2461195
vn 0.9737361 0.1544125 0.1673166
v 1.0392470 7.2738981 -1.0284135
vn -0.0536465 -0.9705097 0.2350171
v 0.4340526 6.2996492 1.8833206
vn -0.2780227 0.8824401 0.3794771
v -0.5480434 7.8881044 1.1756977
vn 0.5140900 -0.6390525 -0.5721219
v 1.2953740 6.3124790 -1.6804895
vn -0.5861890 0.0954635 -0.8045304
v -0.8641039 7.0044279 -2.1039243
vn 0.4689459 -0.5580590 0.6845874
v 1.0392470 6.3466702 2.9837275
vn -0.3439125 0.9207447 -0.1842647
v -0.6757349 8.0352478 -1.1271697
vn 0.9677692 0.0247613 0.2506187
v 1.2953740 6.8126707 1.7696416
vn -0.9552966 -0.2028186 0.2151119
v -1.0392470 6.4937506 -0.4296027
vn 0.0507539 -0.9064580 0.4192351
v 0.2760451 6.2996488 2.9112077
vn -0.4142829 0.9095657 0.0325583
v -0.5401986 8.0352478 -0.5408661
vn 0.0330334 -0.9945145 0.0992455
v 0.6949368 6.2996483 -0.4520518
vn 0.5400451 0.7335279 0.4126600
v 0.5477982 7.2837396 2.2970107
vn 0.5318807 0.8287935 0.1737935
v 1.0347580 7.3428273 2.0955541
vn -0.1159869 -0.9918788 0.0521876
v 0.0455629 6.2996488 1.4507694
vn 0.5220032 0.8448330 0.1173457
v 0.6263081 8.0352478 0.0661471
vn -0.0856126 0.4311081 -0.8982295
v -0.0291083 7.4402537 -2.1614537
vn 0.7003947 0.6636197 0.2627856
v 0.8694600 7.0727172 1.6065652
vn -0.5647659 0.7743683 0.2852950
v -0.7491804 7.2982621 2.1796010
vn -0.2487877 0.8299290 0.4993222
v -0.3508812 7.5235271 1.7907214
vn -0.0000000 -1.0000000 0.0000004
v -0.0214992 6.2996483 0.8623163
vn -0.0912049 0.5206305 0.8488966
v -0.3644347 7.0989799 3.1008999
vn -0.9025738 -0.3756017 0.2104376
v -1.3249909 6.0497117 1.9709749
vn -0.9334739 -0.2696444 0.2364707
v -0.9248720 6.8338580 -0.8955961
vn 0.1235436 0.9923391 0.0003419
v 0.1420510 8.0352478 -0.1760999
vn -0.1500164 -0.9047049 -0.3987531
v 0.0674931 6.3514175 -1.8093555
vn -0.2504293 0.5945967 -0.7640287
v -0.5512527 7.5804968 -2.0683799
vn -0.1609476 -0.9682139 0.1914623
v -0.6741199 6.2996488 2.3723338
vn 0.9983784 -0.0411833 0.0393015
v 1.2953734 6.8963027 -1.5359261
vn 0.0061616 -0.9949999 -0.0996855
v -0.5668513 6.2996488 -0.4409797
vn 0.3415438 -0.9175387 -0.2036434
v 0.8854610 5.9731264 1.3532166
vn 0.5745500 0.8184511 0.0054813
v 1.0392470 7.8845716 -0.7596563
vn -0.8923899 -0.4422861 -0.0895735
v -0.9918602 6.2996488 0.4262405
vn 0.0000000 -1.0000000 0.0000002
v -0.0145544 6.2996483 0.3076716
vn 0.9609651 -0.2762894 -0.0145021
v 1.0392470 6.7164569 0.6848949
vn -0.8237508 0.3630883 -0.4354326
v -1.0392470 7.4728270 -1.7831661
vn 0.8795454 0.1330250 -0.4568416
v 1.0392470 7.0048542 -2.0215991
vn 0.1377557 0.3525694 0.9255907
v 0.4865325 7.0119944 3.1008999
vn -0.2139871 0.8044708 0.5541085
v 0.0674068 7.2570629 2.5126741
vn 0.0697581 0.6328163 -0.7711533
v 0.4889937 7.7386141 -1.8879745
vn 0.7407541 0.6716791 0.0114317
v 1.0392470 7.9619403 0.4813496
vn 0.2889583 -0.6508064 -0.7021070
v 0.8217778 6.3701839 -1.9035451
vn 0.9962841 0.0438557 -0.0741255
v 1.0392470 7.2100759 0.4525208
vn 0.8325552 -0.5478402 0.0819937
v 1.0392470 6.7103071 -0.2463706
vn -0.9778581 -0.0217768 -0.2081330
v -1.3507850 6.4365129 1.1188942
vn 0.1768885 -0.3288646 -0.9276630
v 0.4396519 6.8168173 -2.0791593
vn -0.8683646 0.4761633 -0.1386050
v -1.0392470 7.4690104 -1.2715356
vn 0.1935502 0.8990864 0.3926602
v 0.1518684 7.6369114 1.5994489
vn 0.7343468 0.4738002 -0.4860538
v 1.0392470 7.4776068 -1.5877243
vn 0.1574647 -0.9737790 -0.1641932
v 0.1763236 6.2996488 -0.2183101
vn -0.7649503 -0.2653760 0.5868788
v -1.0392470 7.1195312 2.9431210
vn -0.9508117 0.1495791 0.2712620
v -1.3133657 6.9055696 2.0025384
vn 0.8046524 -0.5709772 -0.1628483
v 1.2953740 6.2577858 1.4914222
vn 0.0754914 -0.9931489 -0.0891987
v 0.3945002 6.2996488 -1.3542345
vn -0.4601470 0.8764011 -0.1420768
v -0.6020228 8.0352478 0.0069690
vn -0.9756179 0.2153064 0.0425782
v -1.0392470 7.3990250 0.1843759
vn -0.6564004 -0.5120304 -0.5540428
v -1.3055258 6.1335039 -1.6033089
vn 0.6670818 0.7449508 0.0070868
v 1.0392470 7.7012300 0.0015457
vn 0.4543731 0.8067904 0.3776698
v 0.6134562 7.7453761 1.4164739
vn -0.2528473 -0.6979364 0.6700397
v -0.9975001 6.2996488 2.8406005
vn 0.8121092 0.4847152 0.3248537
v 1.0392470 7.6672473 1.0083447
vn -0.1658411 -0.9847335 -0.0528853
v -0.1199660 6.2996488 -0.7640713
vn 0.0324576 -0.9828047 0.1817730
v 0.4685191 6.2996488 2.4266841
vn -0.7417718 -0.5367565 0.4020785
v -0.9248720 6.7403650 1.6587287
vn 0.9741384 -0.0067205 -0.2258523
v 0.8694600 6.7027225 -0.7252492
vn -0.7140127 -0.6999598 -0.0155605
v -0.9248720 6.5164757 -1.4511297
vn 0.4331604 -0.9011928 -0.0149537
v 1.0392470 6.4280114 -1.2244904
vn 0.5181582 -0.8176591 0.2508898
v 0.9968413 6.2996488 2.3832464
vn -0.9551133 0.0940314 0.2809213
v -1.0392470 6.9034166 2.4541328
vn -0.0149496 0.9971365 0.0741308
v -0.1631621 8.0352478 0.3538145
vn 0.9356781 0.3525113 -0.0155649
v 1.0392470 7.1413732 1.1049219
vn 0.2087107 -0.9632771 -0.1689292
v 0.4709858 6.2996492 1.1300880
vn 0.9653397 0.2601684 -0.0207758
v 1.0392470 7.3184786 -0.3473860
# 121 vertices, 0 vertices normals

# 0 faces, 0 coords texture

# End of File
